<?xml version="1.0" encoding="utf-8"?>
<?xml-stylesheet type="text/xsl" href="rss1.xsl"?>
<rss version="2.0" xmlns:atom="http://www.w3.org/2005/Atom" xmlns:content="http://purl.org/rss/1.0/modules/content/" xmlns:dc="http://purl.org/dc/elements/1.1/" xmlns:media="http://search.yahoo.com/mrss/">
<channel>
 <title>Getty</title>
 <link>http://www.gettyimg.com/</link>
 <atom:link href="http://www.gettyimg.com/" rel="self" type="application/rss+xml" />

 
                <item>
                <title><![CDATA[【SD】DVD - Avril Lavigne - The Best Damn Thing (SD) Very Good Quality!]]></title>
                <link><![CDATA[https://sharemania.us/threads/avril-lavigne-the-best-damn-thing-sd-very-good-quality.234554/]]></link>
                <description><![CDATA[<article>
<blockquote class="messageText SelectQuoteContainer ugc baseHtml">
<img src="https://i.imgur.com/GauXLZO.png" class="bbCodeImage LbImage" alt="[​IMG]" data-url="https://i.imgur.com/GauXLZO.png" style=""> <img src="https://i.imgur.com/XiyfaEU.png" class="bbCodeImage LbImage" alt="[​IMG]" data-url="https://i.imgur.com/XiyfaEU.png" style=""> <img src="https://i.imgur.com/PioyqSJ.png" class="bbCodeImage LbImage" alt="[​IMG]" data-url="https://i.imgur.com/PioyqSJ.png" style=""> <img src="https://i.imgur.com/nTBMjuN.png" class="bbCodeImage LbImage" alt="[​IMG]" data-url="https://i.imgur.com/nTBMjuN.png" style=""> <br>
<br>
<div class="ToggleTriggerAnchor bbCodeSpoilerContainer">
<button type="button" class="button bbCodeSpoilerButton ToggleTrigger Tooltip JsOnly" data-target="> .SpoilerTarget"><span>Spoiler: <span class="SpoilerTitle">MediaInfo</span></span></button>
<div class="SpoilerTarget bbCodeSpoilerText">General<br>
Format : MPEG-4<br>
Format profile : QuickTime<br>
Codec ID : qt 0000.02 (qt )<br>
File size : 951 MiB<br>
Duration : 3 min 9 s<br>
Overall bit rate : 42.2 Mb/s<br>
major_brand : qt <br>
minor_version : 512<br>
compatible_brands : qt <br>
<br>
Video<br>
ID : 1<br>
Format : HEVC<br>
Format/Info : High Efficiency Video Coding<br>
Format profile : Main@L6.2@Main<br>
Codec ID : hvc1<br>
Codec ID/Info : High Efficiency Video Coding<br>
Duration : 3 min 9 s<br>
Bit rate : 39.9 Mb/s<br>
Width : 720 pixels<br>
Height : 480 pixels<br>
Display aspect ratio : 4:3<br>
Frame rate mode : Constant<br>
Frame rate : 29.970 (30000/1001) FPS<br>
Standard : NTSC<br>
Color space : YUV<br>
Chroma subsampling : 4:2:0<br>
Bit depth : 8 bits<br>
Scan type : Interlaced<br>
Scan type, store method : Interleaved fields<br>
Scan order : Top Field First<br>
Bits/(Pixel*Frame) : 3.848<br>
Stream size : 899 MiB (95%)<br>
Color range : Limited<br>
Transfer characteristics : BT.709<br>
Matrix coefficients : BT.709<br>
Codec configuration box : hvcC<br>
<br>
Audio<br>
ID : 2<br>
Format : PCM<br>
Format settings : Little / Signed<br>
Codec ID : in24<br>
Duration : 3 min 9 s<br>
Bit rate mode : Constant<br>
Bit rate : 2 304 kb/s<br>
Channel(s) : 2 channels<br>
Channel layout : L R<br>
Sampling rate : 48.0 kHz<br>
Bit depth : 24 bits<br>
Stream size : 51.9 MiB (5%)<br>
Default : Yes<br>
Alternate group : 1<br>
mdhd_Duration : 189124</div>
</div><br>
<div class="bbCodeBlock bbCodeVfcHH HiddenContent">
<div class="attribution type">Hidden Content:</div>
<blockquote>You must reply before you can see the hidden data contained here.</blockquote>
</div>
<div class="messageTextEndMarker">&nbsp;</div>
</blockquote>
</article>]]></description>
                <author><![CDATA[Avril1255]]></author>
                </item>

                </channel></rss>